<?xml version="1.0" encoding="utf-8"?>
<!DOCTYPE svg PUBLIC "-//W3C//DTD SVG 1.1//EN" "http://www.w3.org/Graphics/SVG/1.1/DTD/svg11.dtd">
<svg version="1.1" id="Ebene_1" xmlns="http://www.w3.org/2000/svg" xmlns:xlink="http://www.w3.org/1999/xlink" x="0px" y="0px"
	 width="150px" height="141.4px" viewBox="0 0 150 141.4" style="enable-background:new 0 0 150 141.4;" xml:space="preserve">
<g>
	<path style="fill:#010202;" d="M6.5,81.8L4.3,93H0.7l5.9-30.4h3.6l-0.6,2.8c0.8-1.1,1.8-1.9,2.9-2.5S15,62,16.3,62
		c2.1,0,3.8,0.7,4.9,2c1.2,1.4,1.8,3.3,1.8,5.7c0,1.9-0.3,3.8-0.8,5.6c-0.5,1.9-1.2,3.6-2.2,5c-1,1.5-2.1,2.7-3.5,3.5
		c-1.3,0.8-2.8,1.2-4.4,1.2c-1.3,0-2.4-0.3-3.4-0.8S7.1,82.9,6.5,81.8z M12,82.1c1.1,0,2-0.3,2.9-0.9c0.9-0.6,1.6-1.4,2.2-2.5
		c0.6-1.2,1.1-2.6,1.5-4.1c0.4-1.5,0.6-3,0.6-4.5c0-1.7-0.3-2.9-1-3.7s-1.7-1.2-3-1.2c-1.1,0-2.1,0.3-3,0.9
		c-0.9,0.6-1.7,1.5-2.3,2.6c-0.6,1.2-1.1,2.5-1.5,4c-0.4,1.5-0.6,3-0.6,4.5c0,1.6,0.4,2.9,1.1,3.7C9.6,81.7,10.6,82.1,12,82.1z"/>
	<path style="fill:#010202;" d="M46.2,70.9l-2.7,13.7h-3.6l2.7-13.7c0-0.1,0-0.1,0.1-0.3c0.2-0.9,0.3-1.7,0.3-2.2
		c0-1.1-0.3-1.9-0.9-2.4c-0.6-0.6-1.5-0.9-2.6-0.9c-1.7,0-3.1,0.6-4.2,1.8c-1.2,1.2-2,2.9-2.4,5.1l-2.4,12.5h-3.6l6-30.6h3.6
		L34,65.9c1-1.3,2-2.2,3.2-2.9c1.1-0.6,2.4-1,3.6-1c1.8,0,3.2,0.5,4.2,1.4c1,1,1.5,2.3,1.5,4c0,0.4,0,0.9-0.1,1.6
		S46.3,70.3,46.2,70.9z"/>
	<path style="fill:#010202;" d="M70.2,72l-2.5,12.6h-3.6l0.6-3.3c-0.9,1.2-2.1,2.2-3.3,2.8s-2.6,1-4.1,1c-2,0-3.6-0.5-4.8-1.6
		c-1.2-1.1-1.8-2.5-1.8-4.4c0-2.6,1-4.6,3-6.2c2-1.5,4.8-2.3,8.2-2.3h4.8l0.2-1.2c0-0.1,0-0.2,0.1-0.4c0-0.1,0-0.3,0-0.6
		c0-1.1-0.4-2-1.2-2.6c-0.8-0.6-2-0.9-3.5-0.9c-1.1,0-2.3,0.2-3.6,0.5c-1.3,0.3-2.7,0.8-4.1,1.5l0.7-3.5c1.4-0.5,2.8-0.9,4-1.2
		c1.3-0.3,2.5-0.4,3.7-0.4c2.4,0,4.3,0.5,5.7,1.6c1.4,1.1,2,2.6,2,4.5c0,0.4,0,1-0.1,1.7S70.3,71.2,70.2,72z M62.9,73.5
		c-1.6,0-2.7,0-3.5,0.1c-0.8,0.1-1.4,0.3-2,0.5c-0.9,0.4-1.6,0.9-2.1,1.7c-0.5,0.8-0.8,1.7-0.8,2.6c0,1.1,0.3,2,1,2.6
		c0.7,0.6,1.6,1,2.7,1c1.9,0,3.6-0.7,5-2.1c1.4-1.4,2.4-3.3,2.9-5.7l0.2-0.8H62.9z"/>
	<path style="fill:#010202;" d="M93.7,63.3L93,66.9c-0.9-0.6-1.9-1-2.9-1.3c-1-0.3-2-0.5-3.1-0.5c-1.8,0-3.2,0.3-4.2,1
		s-1.5,1.6-1.5,2.8c0,1.3,1.4,2.3,4.3,3C85.9,72,86,72,86.1,72l1.4,0.4c1.5,0.4,2.7,1,3.4,1.8c0.8,0.8,1.1,1.8,1.1,3
		c0,2.4-0.9,4.3-2.8,5.8c-1.9,1.5-4.4,2.2-7.5,2.2c-1.1,0-2.2-0.1-3.3-0.3c-1.2-0.2-2.4-0.6-3.7-1l0.7-3.7c1.2,0.7,2.4,1.2,3.6,1.6
		c1.2,0.3,2.3,0.5,3.4,0.5c1.7,0,3.2-0.4,4.3-1.2c1.1-0.8,1.7-1.8,1.7-3c0-1.3-1.3-2.3-3.9-3c-0.2-0.1-0.4-0.1-0.6-0.1l-1.3-0.4
		c-1.7-0.4-2.9-1.1-3.7-1.9c-0.8-0.8-1.2-1.9-1.2-3.3c0-2.2,0.9-4,2.6-5.3c1.7-1.3,4.1-2,7-2c1.2,0,2.3,0.1,3.3,0.3
		C91.7,62.6,92.7,62.9,93.7,63.3z"/>
	<path style="fill:#010202;" d="M114.7,83.5c-1.4,0.6-2.7,1-4,1.3c-1.3,0.3-2.6,0.4-4,0.4c-2.9,0-5.1-0.7-6.7-2.2
		c-1.5-1.5-2.3-3.6-2.3-6.4c0-2,0.4-4.1,1.2-6c0.8-2,1.9-3.7,3.3-5.1c1.1-1.1,2.3-2,3.6-2.6c1.3-0.6,2.7-0.9,4.1-0.9
		c2.4,0,4.4,0.8,5.9,2.3c1.5,1.5,2.2,3.5,2.2,6c0,0.4,0,1-0.1,1.7c-0.1,0.7-0.2,1.5-0.3,2.5h-15.9c-0.1,0.4-0.1,0.8-0.2,1.1
		s-0.1,0.6-0.1,0.9c0,1.8,0.5,3.2,1.5,4.2c1,1,2.5,1.4,4.4,1.4c1.2,0,2.4-0.2,3.8-0.6c1.4-0.4,2.8-0.9,4.3-1.7L114.7,83.5z
		 M114.2,71.6c0.1-0.4,0.1-0.6,0.2-0.9c0-0.2,0-0.4,0-0.7c0-1.6-0.4-2.8-1.3-3.7c-0.9-0.9-2-1.3-3.6-1.3c-1.6,0-3.1,0.6-4.4,1.8
		c-1.3,1.2-2.3,2.8-2.9,4.8H114.2z"/>
	<path style="fill:#010202;" d="M133.1,71.4H130l1-5.1h3.1c1.6,0,2.9-0.4,4-1.1s1.5-1.6,1.5-2.8c0-0.9-0.4-1.6-1.1-2.1
		s-1.8-0.7-3.2-0.7c-1.1,0-2.3,0.1-3.6,0.4c-1.3,0.3-2.7,0.7-4.1,1.2l1.1-5.3c1.4-0.4,2.7-0.7,3.9-0.9c1.3-0.2,2.5-0.3,3.6-0.3
		c2.7,0,4.8,0.6,6.4,1.9s2.4,3,2.4,5c0,1.8-0.6,3.4-1.9,4.7s-3,2.1-5.1,2.5c1.8,0.5,3.1,1.2,3.9,2.3s1.3,2.5,1.3,4.2
		c0,3-1.1,5.4-3.2,7.2c-2.1,1.8-5.1,2.7-8.7,2.7c-1.3,0-2.8-0.1-4.3-0.4c-1.5-0.2-3.1-0.6-4.7-1.1l1.1-5.3c1.3,0.6,2.6,1.1,3.9,1.4
		c1.4,0.3,2.7,0.5,4.2,0.5c2,0,3.6-0.4,4.6-1.3c1.1-0.9,1.6-2.2,1.6-3.9c0-1.1-0.4-1.9-1.3-2.6C135.7,71.8,134.6,71.4,133.1,71.4z"
		/>
</g>
<polygon style="fill:#009BD9;" points="67.5,39 50.8,12.4 97.9,0 "/>
<polygon style="fill:#49B170;" points="45.3,104.3 17.4,115.2 26.7,136.5 "/>
<polygon style="fill:#F7A823;" points="94,102.1 146.6,108 122.1,137.3 "/>
</svg>

